<!-- Generated by IcoMoon.io -->
<svg version="1.1" xmlns="http://www.w3.org/2000/svg" width="32" height="32" viewBox="0 0 32 32">
<title>company</title>
<path d="M10.901 21.719c0.005 0 0.010 0.001 0.014 0.003s0.008 0.004 0.011 0.007l0.065 0.062c-0.051 0.051-0.113 0.091-0.184 0.118-0.083 0.030-0.171 0.044-0.261 0.043-0.084 0.002-0.167-0.012-0.245-0.040-0.070-0.025-0.133-0.063-0.185-0.112-0.053-0.050-0.093-0.109-0.119-0.173-0.029-0.071-0.043-0.147-0.042-0.222-0.001-0.076 0.014-0.152 0.045-0.223 0.029-0.065 0.071-0.123 0.126-0.173s0.122-0.087 0.196-0.113c0.080-0.027 0.166-0.040 0.252-0.040 0.080-0.002 0.16 0.011 0.234 0.036 0.065 0.024 0.124 0.058 0.176 0.1l-0.054 0.067c-0.004 0.005-0.008 0.009-0.014 0.012-0.006 0.004-0.014 0.006-0.022 0.005s-0.017-0.003-0.024-0.007l-0.029-0.018-0.041-0.022c-0.017-0.008-0.036-0.016-0.054-0.022-0.024-0.007-0.049-0.013-0.074-0.018-0.032-0.005-0.065-0.007-0.097-0.007-0.062-0.001-0.123 0.010-0.181 0.030-0.054 0.019-0.102 0.047-0.142 0.084-0.041 0.039-0.072 0.084-0.092 0.134-0.023 0.057-0.034 0.116-0.034 0.176-0.001 0.061 0.010 0.121 0.034 0.179 0.020 0.049 0.051 0.094 0.090 0.133 0.038 0.036 0.084 0.064 0.135 0.083 0.053 0.019 0.111 0.029 0.168 0.028 0.033 0.001 0.067-0.002 0.099-0.006 0.054-0.006 0.106-0.022 0.151-0.048 0.023-0.013 0.044-0.027 0.065-0.044 0.008-0.007 0.020-0.011 0.031-0.011v0z"></path>
<path d="M12.787 21.406c0.001 0.075-0.014 0.15-0.044 0.221-0.026 0.064-0.069 0.122-0.123 0.171s-0.12 0.087-0.193 0.112c-0.16 0.053-0.336 0.053-0.496 0-0.072-0.026-0.138-0.064-0.192-0.113-0.054-0.050-0.097-0.109-0.124-0.173-0.059-0.143-0.059-0.299 0-0.442 0.028-0.065 0.070-0.123 0.124-0.174 0.054-0.047 0.12-0.084 0.192-0.108 0.159-0.054 0.337-0.054 0.496 0 0.072 0.026 0.138 0.064 0.193 0.113s0.095 0.107 0.123 0.171c0.030 0.071 0.045 0.147 0.044 0.222zM12.615 21.406c0.001-0.060-0.009-0.12-0.031-0.177-0.019-0.049-0.048-0.094-0.088-0.133-0.038-0.037-0.085-0.065-0.138-0.084-0.116-0.039-0.245-0.039-0.361 0-0.053 0.019-0.1 0.047-0.138 0.084-0.040 0.038-0.070 0.084-0.088 0.133-0.042 0.116-0.042 0.239 0 0.355 0.019 0.049 0.048 0.094 0.088 0.133 0.038 0.037 0.085 0.065 0.138 0.083 0.116 0.038 0.245 0.038 0.361 0 0.053-0.019 0.099-0.047 0.138-0.083 0.039-0.039 0.069-0.084 0.088-0.133 0.022-0.057 0.033-0.117 0.031-0.177v0z"></path>
<path d="M14.073 21.592l0.017 0.040c0.007-0.014 0.012-0.027 0.019-0.040s0.013-0.026 0.021-0.039l0.417-0.659c0.008-0.011 0.016-0.019 0.024-0.021 0.011-0.003 0.022-0.004 0.034-0.003h0.123v1.072h-0.146v-0.788c0-0.010 0-0.021 0-0.033s-0.001-0.025 0-0.037l-0.419 0.668c-0.005 0.010-0.014 0.019-0.025 0.024s-0.023 0.009-0.036 0.009h-0.024c-0.013 0-0.025-0.003-0.036-0.009s-0.019-0.015-0.025-0.025l-0.432-0.673c0 0.013 0 0.026 0 0.038s0 0.024 0 0.034v0.788h-0.141v-1.069h0.123c0.012-0.001 0.023 0.001 0.034 0.003 0.010 0.005 0.018 0.012 0.023 0.021l0.426 0.66c0.008 0.012 0.016 0.025 0.021 0.038v0z"></path>
<path d="M15.643 21.538v0.401h-0.163v-1.070h0.364c0.069-0.001 0.138 0.007 0.203 0.024 0.053 0.013 0.102 0.036 0.144 0.067 0.037 0.029 0.064 0.065 0.081 0.105 0.019 0.044 0.029 0.090 0.027 0.137 0.001 0.047-0.010 0.094-0.030 0.137-0.020 0.041-0.050 0.077-0.088 0.107-0.042 0.032-0.091 0.056-0.144 0.071-0.063 0.017-0.13 0.026-0.197 0.025l-0.198-0.003zM15.643 21.423h0.198c0.043 0.001 0.086-0.005 0.126-0.016 0.034-0.010 0.065-0.026 0.092-0.046 0.025-0.020 0.044-0.044 0.056-0.071 0.013-0.029 0.020-0.059 0.020-0.090 0.002-0.030-0.004-0.059-0.016-0.087s-0.032-0.053-0.057-0.073c-0.062-0.042-0.141-0.063-0.22-0.057h-0.198v0.441z"></path>
<path d="M17.837 21.941h-0.129c-0.013 0.001-0.026-0.003-0.036-0.010-0.009-0.007-0.016-0.015-0.021-0.025l-0.111-0.259h-0.557l-0.115 0.259c-0.005 0.010-0.011 0.018-0.020 0.024-0.010 0.007-0.024 0.011-0.037 0.011h-0.129l0.49-1.072h0.17l0.496 1.072zM17.029 21.543h0.46l-0.194-0.436c-0.015-0.033-0.027-0.066-0.037-0.101l-0.019 0.056c-0.006 0.017-0.012 0.033-0.018 0.045l-0.193 0.436z"></path>
<path d="M18.543 20.874c0.010 0.005 0.018 0.011 0.025 0.019l0.714 0.808c0-0.013 0-0.026 0-0.038s0-0.024 0-0.035v-0.759h0.146v1.072h-0.081c-0.012 0.001-0.023-0.002-0.034-0.006s-0.019-0.012-0.026-0.020l-0.714-0.807c0.001 0.012 0.001 0.025 0 0.037s0 0.022 0 0.033v0.764h-0.146v-1.072h0.086c0.010 0 0.020 0.002 0.029 0.005v0z"></path>
<path d="M20.63 21.515v0.426h-0.163v-0.426l-0.451-0.646h0.146c0.012-0.001 0.025 0.003 0.035 0.009 0.009 0.007 0.016 0.015 0.022 0.024l0.282 0.417c0.011 0.018 0.021 0.034 0.029 0.049s0.015 0.030 0.020 0.045l0.021-0.046c0.008-0.017 0.017-0.033 0.027-0.049l0.278-0.419c0.006-0.008 0.013-0.016 0.021-0.022 0.010-0.007 0.022-0.011 0.035-0.011h0.148l-0.453 0.648z"></path>
<path d="M13.992 19.071c0.071 0.008 0.143 0.014 0.216 0.020 1.101-0.428 2.033-1.129 2.679-2.014s0.977-1.917 0.952-2.965l-1.214-1.055c0.247 1.116 0.131 2.27-0.333 3.332s-1.261 1.991-2.298 2.683v0z"></path>
<path d="M13.558 19.022l0.033 0.006c1.109-0.689 1.954-1.652 2.427-2.763s0.551-2.32 0.224-3.47l-1.729-1.502c0.7 1.235 0.981 2.617 0.812 3.985s-0.782 2.667-1.767 3.745v0z"></path>
<path d="M19.422 15.349c-0.294 1.152-1.007 2.191-2.035 2.962-0.3 0.227-0.624 0.428-0.967 0.603 0.837-0.213 1.605-0.591 2.247-1.104s1.14-1.146 1.455-1.853l-0.701-0.609z"></path>
<path d="M19.147 15.18l-0.998-0.867c-0.019 0.989-0.342 1.955-0.937 2.799s-1.438 1.533-2.443 1.998h0.005c0.224 0 0.448-0.012 0.67-0.035 0.939-0.333 1.769-0.863 2.416-1.543s1.089-1.488 1.288-2.352v0z"></path>
<path d="M13.703 10.659l-1.191-1.036c-1.065 0.358-1.981 0.986-2.627 1.803s-0.995 1.785-0.998 2.777v0c0.004 1.096 0.428 2.159 1.206 3.022s1.865 1.475 3.088 1.741c1.092-1.157 1.732-2.585 1.826-4.079s-0.363-2.975-1.304-4.227v0z"></path>
<path d="M21.899 15.020c-0.005-1.3-0.601-2.546-1.659-3.466s-2.492-1.438-3.989-1.441v0c-0.692-0.001-1.377 0.11-2.022 0.327l7.293 6.336c0.25-0.56 0.378-1.155 0.377-1.756v0z"></path>
</svg>
